<?xml version="1.0" encoding="UTF-8"?>
<svg id="Layer_2" xmlns="http://www.w3.org/2000/svg" viewBox="0 0 272.3 60.93">
  <defs>
    <style>
      .cls-1 {
        fill: #333;
      }
    </style>
  </defs>
  <g id="animal">
    <path class="cls-1" d="M.6,45.63h11.5c2.3,0,4.1-1.8,4.1-4.1s-1.8-4.1-4.1-4.1h-3c-5.4,0-9.1-3.7-9.1-9s4.1-9.1,9.1-9.1h9.7v4.9h-9.5c-2.3,0-4.1,1.8-4.1,4.1s1.8,4.1,4.1,4.1h3c5.4,0,9.1,3.6,9.1,8.9s-4.1,9.2-9.1,9.2H.6v-4.9Z"/>
    <path class="cls-1" d="M26.5,40.13v-20.8h5.6v20.8c0,3.2,2.4,5.7,5.6,5.7s5.6-2.5,5.6-5.7v-20.8h5.6v20.8c0,6.5-5.6,10.9-11.3,10.9-6.5,0-11.1-4.4-11.1-10.9Z"/>
    <path class="cls-1" d="M55.3,29.73c0-6,5.2-10.9,11.2-10.9,6.5,0,11.2,4.4,11.2,10.9v10.4c0,6-4.9,10.9-10.9,10.9-2.1,0-4-.5-5.9-1.8v11.7h-5.6v-31.2ZM72.1,40.13v-10.4c0-3.3-2.3-5.7-5.6-5.7s-5.6,2.4-5.6,5.7v10.4c0,3.2,2.4,5.7,5.6,5.7s5.6-2.5,5.6-5.7Z"/>
    <path class="cls-1" d="M82.7,39.49v-9.34c0-6.05,4.95-11.24,11-11.32,6.61-.09,11.4,4.33,11.4,10.9h0c0,4.31-3.49,7.8-7.8,7.8h-9v2.57c0,3.05,2.39,5.65,5.43,5.73,3.39.09,5.77-2.44,5.77-5.7h5.6c0,7.09-7.27,12.65-14.54,10.39-4.75-1.48-7.86-6.05-7.86-11.03ZM99.5,29.74h0c0-2.99-2.31-5.57-5.3-5.71-3.36-.16-5.8,2.29-5.8,5.69v2.6h8.51c1.43,0,2.59-1.16,2.59-2.59Z"/>
    <path class="cls-1" d="M110.5,7.8c0-4.6,3.3-7.8,7.8-7.8h5v5.2h-4.6c-1.5,0-2.6,1-2.6,2.6v23.4h-5.6V7.8Z"/>
    <path class="cls-1" d="M125.3,29.73c0-6,5.2-10.9,11.2-10.9,6.5,0,11.2,4.4,11.2,10.9v10.4c0,6-4.9,10.9-10.9,10.9-2.1,0-4-.5-5.9-1.8v11.7h-5.6v-31.2ZM142.1,40.13v-10.4c0-3.3-2.3-5.7-5.6-5.7s-5.6,2.4-5.6,5.7v10.4c0,3.2,2.4,5.7,5.6,5.7s5.6-2.5,5.6-5.7Z"/>
    <path class="cls-1" d="M152.7,39.49v-9.34c0-6.05,4.95-11.24,11-11.32,6.61-.09,11.4,4.33,11.4,10.9h0c0,4.31-3.49,7.8-7.8,7.8h-9v2.57c0,3.05,2.39,5.65,5.43,5.73,3.39.09,5.77-2.44,5.77-5.7h5.6c0,7.09-7.27,12.65-14.54,10.39-4.75-1.48-7.86-6.05-7.86-11.03ZM169.5,29.74h0c0-2.81-2.01-5.33-4.8-5.67-3.61-.43-6.3,2.08-6.3,5.65v2.6h8.51c1.43,0,2.59-1.16,2.59-2.59Z"/>
    <path class="cls-1" d="M180.1,40.13v-10.4c0-6,5.2-10.9,11.2-10.9,6.5,0,11.2,4.4,11.2,10.9v10.4c0,6-5.2,10.9-11.2,10.9-6.5,0-11.2-4.4-11.2-10.9ZM196.9,40.13v-10.4c0-3.3-2.3-5.7-5.6-5.7s-5.6,2.4-5.6,5.7v10.4c0,3.2,2.4,5.7,5.6,5.7s5.6-2.5,5.6-5.7Z"/>
    <path class="cls-1" d="M207.9,29.73c0-6,5.2-10.9,11.2-10.9,6.5,0,11.2,4.4,11.2,10.9v10.4c0,6-4.9,10.9-10.9,10.9-2.1,0-4-.5-5.9-1.8v11.7h-5.6v-31.2ZM224.7,40.13v-10.4c0-3.3-2.3-5.7-5.6-5.7s-5.6,2.4-5.6,5.7v10.4c0,3.2,2.4,5.7,5.6,5.7s5.6-2.5,5.6-5.7Z"/>
    <path class="cls-1" d="M237.3,13.5h5.6v37.03h-5.6V13.5Z"/>
    <path class="cls-1" d="M249.9,20.66v-9.34c0-6.05,4.95-11.24,11-11.32,6.61-.09,11.4,4.33,11.4,10.9h0c0,4.31-3.49,7.8-7.8,7.8h-9v2.57c0,3.05,2.39,5.65,5.43,5.73,3.39.09,5.77-2.44,5.77-5.7h5.6c0,7.09-7.27,12.65-14.54,10.39-4.75-1.48-7.86-6.05-7.86-11.03ZM266.7,10.91h0c0-2.99-2.31-5.57-5.3-5.71-3.36-.16-5.8,2.29-5.8,5.69v2.6h8.51c1.43,0,2.59-1.16,2.59-2.59Z"/>
  </g>
</svg>